# xmcd
#
# Track frame offsets:
#  150
#  11114
#  24539
#  34006
#  46577
#  58932
#  73647
#  87422
#  98373
#  109514
#  134260
#  150961
#  162624
#  178706
#  192713
#  209292
#  216680
#  230288
#  247125
#  261923
#  278723
#  291482
#  306521
#  319145
#  337477
#
# Disc length: 4791 seconds
#
# Revision: 0
# Processed by: cddbd v1.5.2PL0 Copyright (c) Steve Scherf et al.
# Submitted via: AltoMP3_Maker 3.0
#
DISCID=8312b519
DTITLE=Tom Russell - Midway to Bayamon
DYEAR=1900
DGENRE=
TTITLE0=Wise Blood
TTITLE1=As the Crow Flies
TTITLE2=The Lady Loves the Gambler
TTITLE3=Listen to the Heart
TTITLE4=The Dance
TTITLE5=Mezcal
TTITLE6=Amelia's Railroad Flat
TTITLE7=A Cajun Lullaby
TTITLE8=Heartland
TTITLE9=La Galue (The Glutton)
TTITLE10=The Road to Bayamon
TTITLE11=Home before Dark
TTITLE12=Navajo Rug
TTITLE13=Love Makes a Fool of the Wise
TTITLE14=Joshua Tree
TTITLE15=Juarez, a Polka Town
TTITLE16=Common Strangers
TTITLE17=The Definition of a Fool
TTITLE18=Denver Wind (demo w. Nanci Griffith)
TTITLE19=Follow Your Heartbeat
TTITLE20=Whistlin' in the Dark
TTITLE21=Lights of Oslo
TTITLE22=Honkytonk Heart
TTITLE23=U.S. Steel
TTITLE24=William Faulkner in Hollywood
EXTD=
EXTT0=
EXTT1=
EXTT2=
EXTT3=
EXTT4=
EXTT5=
EXTT6=
EXTT7=
EXTT8=
EXTT9=
EXTT10=
EXTT11=
EXTT12=
EXTT13=
EXTT14=
EXTT15=
EXTT16=
EXTT17=
EXTT18=
EXTT19=
EXTT20=
EXTT21=
EXTT22=
EXTT23=
EXTT24=
PLAYORDER=
